<svg version="1.1" id="Layer_1" xmlns="http://www.w3.org/2000/svg" xmlns:xlink="http://www.w3.org/1999/xlink" x="0px" y="0px"
	 width="100%" viewBox="0 0 250 250" enable-background="new 0 0 250 250" xml:space="preserve">
<path fill="#082F6E" opacity="1.000000" stroke="none" 
	d="
M131.000000,0.999999 
	C138.354248,1.000000 145.708496,1.000000 153.515747,1.352712 
	C174.865906,14.205454 180.838165,35.645786 186.408325,57.629829 
	C190.263702,54.333221 193.484863,51.732616 196.534378,48.944290 
	C208.576431,37.933632 220.669113,38.193542 230.584641,50.322624 
	C233.759460,54.206207 235.916168,59.045887 237.965714,63.700424 
	C242.563705,74.142570 241.617172,85.384644 240.708496,96.183388 
	C239.916046,105.600761 237.248337,115.015320 234.248703,124.045631 
	C231.583923,132.067871 225.190384,137.586365 218.540497,141.063293 
	C222.174332,147.450989 226.969589,153.071472 228.628098,159.501083 
	C230.738800,167.683777 231.296997,176.586563 230.738937,185.061340 
	C229.948120,197.070740 225.537582,208.357224 216.000916,216.176193 
	C200.117371,229.198868 181.091064,230.881836 161.457809,229.333893 
	C152.424438,228.621674 143.645981,227.883957 134.995178,232.782104 
	C125.061821,238.406418 114.329597,242.614548 103.980934,247.515015 
	C101.903114,248.498932 99.989380,249.829330 98.000000,251.000000 
	C89.312439,251.000000 80.624870,251.000000 71.482635,250.645905 
	C70.428368,249.754227 69.900078,249.094376 69.218712,248.697006 
	C53.804668,239.707230 46.602520,225.719391 46.219234,208.458649 
	C46.041969,200.475662 47.915630,192.382446 49.448818,184.453171 
	C50.228111,180.422852 49.157360,178.012634 45.719440,176.367676 
	C42.431942,174.794678 39.065006,173.387924 35.774570,171.820801 
	C24.861008,166.623032 15.637255,159.770538 11.312742,147.772003 
	C6.898395,135.524200 7.055074,122.993439 9.011552,110.463623 
	C10.641487,100.025078 15.594407,91.196747 25.361603,86.310356 
	C30.409443,83.784996 36.135635,82.615570 41.512623,80.847557 
	C42.012432,73.673119 41.653229,65.895714 43.239651,58.537804 
	C47.598598,38.320766 59.152752,23.121019 77.474190,13.264759 
	C83.694214,9.918610 89.796051,10.687677 95.137520,14.903631 
	C98.344803,17.435102 100.914703,20.827677 103.545563,24.019136 
	C105.692558,26.623627 107.505119,29.503801 110.020020,33.041027 
	C110.554832,31.209372 110.848763,30.487362 110.972206,29.737293 
	C112.876389,18.167206 117.911987,8.774487 128.961639,3.429810 
	C129.829758,3.009908 130.329208,1.827844 131.000000,0.999999 
M110.828102,226.336365 
	C112.898346,225.268326 115.044785,224.324722 117.026093,223.111450 
	C127.560417,216.660614 138.833923,213.488785 151.281235,214.737015 
	C154.905319,215.100433 158.610687,214.852768 162.266846,214.659424 
	C173.420441,214.069626 184.567841,213.320206 195.041916,208.892548 
	C203.586395,205.280579 210.375015,199.662460 212.429749,190.287109 
	C215.593307,175.852524 213.214478,157.518402 194.703674,148.944427 
	C192.892746,148.105621 191.197906,147.014023 189.380356,146.191925 
	C181.563248,142.656143 176.250671,136.788925 172.744339,129.025620 
	C170.418549,123.876099 167.924088,118.777168 165.123337,113.873657 
	C160.820969,106.341087 154.131119,101.728958 145.615280,100.473808 
	C129.745010,98.134705 115.157600,101.682335 102.266907,111.373116 
	C97.192032,115.188225 93.678383,120.281548 92.351456,126.539429 
	C90.800850,133.852188 89.370659,141.209335 88.357231,148.611420 
	C87.492538,154.927078 85.370209,160.479172 81.083916,165.226715 
	C77.290817,169.427963 73.479225,173.624069 69.906593,178.010422 
	C62.312962,187.333618 59.058594,197.917557 60.046288,210.062363 
	C61.627361,229.503479 74.883766,239.118866 93.574020,233.508972 
	C99.275696,231.797623 104.652573,229.004181 110.828102,226.336365 
M219.936768,60.452694 
	C211.221405,55.006687 204.535629,56.310791 198.406448,64.661263 
	C192.627319,72.534782 186.845840,80.406601 181.081879,88.291214 
	C175.397690,96.066719 173.078003,104.640495 175.069061,114.194916 
	C176.296173,120.083443 179.736389,124.141998 185.545731,125.754875 
	C193.295364,127.906464 201.019913,127.745041 208.485397,124.417084 
	C229.723953,114.949379 237.174271,79.404289 221.589081,61.957222 
	C221.257782,61.586342 220.865204,61.270206 219.936768,60.452694 
M97.686745,101.310440 
	C107.899254,94.688492 108.808655,78.484589 104.985435,68.944511 
	C101.396889,59.990028 97.857620,51.196533 95.855148,41.695278 
	C94.548416,35.495155 89.652786,32.921154 83.320869,33.570091 
	C74.317398,34.492832 67.767365,39.232059 63.474312,46.996693 
	C57.804371,57.251625 56.345089,68.473450 57.382584,79.917915 
	C58.992195,97.673370 84.413712,110.881943 97.686745,101.310440 
M125.633392,36.421471 
	C125.200325,41.371243 124.679176,46.315247 124.354675,51.272129 
	C123.858292,58.854584 122.938873,66.469452 123.257256,74.025986 
	C123.508751,79.995049 127.177330,84.521126 132.934891,86.885597 
	C151.139542,94.361725 173.289368,77.616074 170.695847,58.068676 
	C169.328720,47.764614 166.178711,37.733707 159.518631,29.621008 
	C155.866043,25.171749 150.968430,20.898506 145.728683,18.768141 
	C133.477982,13.787258 126.006386,19.335669 125.624962,32.468788 
	C125.596008,33.465794 125.619141,34.464306 125.633392,36.421471 
M52.593716,162.220169 
	C54.421604,162.137726 56.254242,162.113007 58.076595,161.963211 
	C67.987679,161.148544 74.616692,156.163544 77.075241,147.718796 
	C79.782333,138.420334 77.422867,129.933151 69.157455,124.400719 
	C60.161213,118.379112 51.566353,112.278748 44.175003,104.105003 
	C37.146011,96.331978 27.128355,99.051315 22.767874,108.643227 
	C19.366394,116.125572 19.776190,123.842369 21.237173,131.650192 
	C24.740736,150.373962 35.160435,160.841751 52.593716,162.220169 
z"/>
<path fill="#000000" opacity="1.000000" stroke="none" 
	d="
M130.531342,0.999999 
	C130.329208,1.827844 129.829758,3.009908 128.961639,3.429810 
	C117.911987,8.774487 112.876389,18.167206 110.972206,29.737293 
	C110.848763,30.487362 110.554832,31.209372 110.020020,33.041027 
	C107.505119,29.503801 105.692558,26.623627 103.545563,24.019136 
	C100.914703,20.827677 98.344803,17.435102 95.137520,14.903631 
	C89.796051,10.687677 83.694214,9.918610 77.474190,13.264759 
	C59.152752,23.121019 47.598598,38.320766 43.239651,58.537804 
	C41.653229,65.895714 42.012432,73.673119 41.512623,80.847557 
	C36.135635,82.615570 30.409443,83.784996 25.361603,86.310356 
	C15.594407,91.196747 10.641487,100.025078 9.011552,110.463623 
	C7.055074,122.993439 6.898395,135.524200 11.312742,147.772003 
	C15.637255,159.770538 24.861008,166.623032 35.774570,171.820801 
	C39.065006,173.387924 42.431942,174.794678 45.719440,176.367676 
	C49.157360,178.012634 50.228111,180.422852 49.448818,184.453171 
	C47.915630,192.382446 46.041969,200.475662 46.219234,208.458649 
	C46.602520,225.719391 53.804668,239.707230 69.218712,248.697006 
	C69.900078,249.094376 70.428368,249.754227 71.013985,250.645905 
	C47.689365,251.000000 24.378729,251.000000 1.034046,251.000000 
	C1.034046,167.770432 1.034046,84.540855 1.034046,1.000000 
	C44.020393,1.000000 87.041542,1.000000 130.531342,0.999999 
z"/>
<path fill="#000000" opacity="1.000000" stroke="none" 
	d="
M98.468658,251.000000 
	C99.989380,249.829330 101.903114,248.498932 103.980934,247.515015 
	C114.329597,242.614548 125.061821,238.406418 134.995178,232.782104 
	C143.645981,227.883957 152.424438,228.621674 161.457809,229.333893 
	C181.091064,230.881836 200.117371,229.198868 216.000916,216.176193 
	C225.537582,208.357224 229.948120,197.070740 230.738937,185.061340 
	C231.296997,176.586563 230.738800,167.683777 228.628098,159.501083 
	C226.969589,153.071472 222.174332,147.450989 218.540497,141.063293 
	C225.190384,137.586365 231.583923,132.067871 234.248703,124.045631 
	C237.248337,115.015320 239.916046,105.600761 240.708496,96.183388 
	C241.617172,85.384644 242.563705,74.142570 237.965714,63.700424 
	C235.916168,59.045887 233.759460,54.206207 230.584641,50.322624 
	C220.669113,38.193542 208.576431,37.933632 196.534378,48.944290 
	C193.484863,51.732616 190.263702,54.333221 186.408325,57.629829 
	C180.838165,35.645786 174.865906,14.205454 153.984375,1.352712 
	C186.305023,1.000000 218.610046,1.000000 250.957535,1.000000 
	C250.957535,84.232048 250.957535,167.464127 250.957535,251.000000 
	C200.312851,251.000000 149.625076,251.000000 98.468658,251.000000 
M235.683273,207.916534 
	C236.375641,209.725021 237.068024,211.533508 238.091080,214.205688 
	C239.966553,213.408035 242.632767,213.067245 243.719559,211.575653 
	C244.692261,210.240662 243.924240,207.637375 243.924240,204.572067 
	C242.142380,206.221649 241.336609,206.967621 240.530838,207.713577 
	C240.557358,207.190918 240.583893,206.668243 240.610413,206.145584 
	C237.416702,205.693329 234.222992,205.241058 230.589615,204.726532 
	C231.568771,208.340118 232.244598,210.834213 232.920410,213.328308 
	C233.359299,213.325684 233.798187,213.323059 234.237076,213.320435 
	C234.578873,211.689148 234.920670,210.057861 235.683273,207.916534 
z"/>
<path fill="#DA0633" opacity="1.000000" stroke="none" 
	d="
M110.503151,226.521332 
	C104.652573,229.004181 99.275696,231.797623 93.574020,233.508972 
	C74.883766,239.118866 61.627361,229.503479 60.046288,210.062363 
	C59.058594,197.917557 62.312962,187.333618 69.906593,178.010422 
	C73.479225,173.624069 77.290817,169.427963 81.083916,165.226715 
	C85.370209,160.479172 87.492538,154.927078 88.357231,148.611420 
	C89.370659,141.209335 90.800850,133.852188 92.351456,126.539429 
	C93.678383,120.281548 97.192032,115.188225 102.266907,111.373116 
	C115.157600,101.682335 129.745010,98.134705 145.615280,100.473808 
	C154.131119,101.728958 160.820969,106.341087 165.123337,113.873657 
	C167.924088,118.777168 170.418549,123.876099 172.744339,129.025620 
	C176.250671,136.788925 181.563248,142.656143 189.380356,146.191925 
	C191.197906,147.014023 192.892746,148.105621 194.703674,148.944427 
	C213.214478,157.518402 215.593307,175.852524 212.429749,190.287109 
	C210.375015,199.662460 203.586395,205.280579 195.041916,208.892548 
	C184.567841,213.320206 173.420441,214.069626 162.266846,214.659424 
	C158.610687,214.852768 154.905319,215.100433 151.281235,214.737015 
	C138.833923,213.488785 127.560417,216.660614 117.026093,223.111450 
	C115.044785,224.324722 112.898346,225.268326 110.503151,226.521332 
z"/>
<path fill="#D90733" opacity="1.000000" stroke="none" 
	d="
M220.218994,60.690613 
	C220.865204,61.270206 221.257782,61.586342 221.589081,61.957222 
	C237.174271,79.404289 229.723953,114.949379 208.485397,124.417084 
	C201.019913,127.745041 193.295364,127.906464 185.545731,125.754875 
	C179.736389,124.141998 176.296173,120.083443 175.069061,114.194916 
	C173.078003,104.640495 175.397690,96.066719 181.081879,88.291214 
	C186.845840,80.406601 192.627319,72.534782 198.406448,64.661263 
	C204.535629,56.310791 211.221405,55.006687 220.218994,60.690613 
z"/>
<path fill="#D90733" opacity="1.000000" stroke="none" 
	d="
M97.380898,101.518822 
	C84.413712,110.881943 58.992195,97.673370 57.382584,79.917915 
	C56.345089,68.473450 57.804371,57.251625 63.474312,46.996693 
	C67.767365,39.232059 74.317398,34.492832 83.320869,33.570091 
	C89.652786,32.921154 94.548416,35.495155 95.855148,41.695278 
	C97.857620,51.196533 101.396889,59.990028 104.985435,68.944511 
	C108.808655,78.484589 107.899254,94.688492 97.380898,101.518822 
z"/>
<path fill="#D90733" opacity="1.000000" stroke="none" 
	d="
M125.625725,35.941795 
	C125.619141,34.464306 125.596008,33.465794 125.624962,32.468788 
	C126.006386,19.335669 133.477982,13.787258 145.728683,18.768141 
	C150.968430,20.898506 155.866043,25.171749 159.518631,29.621008 
	C166.178711,37.733707 169.328720,47.764614 170.695847,58.068676 
	C173.289368,77.616074 151.139542,94.361725 132.934891,86.885597 
	C127.177330,84.521126 123.508751,79.995049 123.257256,74.025986 
	C122.938873,66.469452 123.858292,58.854584 124.354675,51.272129 
	C124.679176,46.315247 125.200325,41.371243 125.625725,35.941795 
z"/>
<path fill="#D90733" opacity="1.000000" stroke="none" 
	d="
M52.129044,162.194611 
	C35.160435,160.841751 24.740736,150.373962 21.237173,131.650192 
	C19.776190,123.842369 19.366394,116.125572 22.767874,108.643227 
	C27.128355,99.051315 37.146011,96.331978 44.175003,104.105003 
	C51.566353,112.278748 60.161213,118.379112 69.157455,124.400719 
	C77.422867,129.933151 79.782333,138.420334 77.075241,147.718796 
	C74.616692,156.163544 67.987679,161.148544 58.076595,161.963211 
	C56.254242,162.113007 54.421604,162.137726 52.129044,162.194611 
z"/>
<path fill="#062F6E" opacity="1.000000" stroke="none" 
	d="
M235.472870,208.171555 
	C234.920670,210.057861 234.578873,211.689148 234.237076,213.320435 
	C233.798187,213.323059 233.359299,213.325684 232.920410,213.328308 
	C232.244598,210.834213 231.568771,208.340118 230.589615,204.726532 
	C234.222992,205.241058 237.416702,205.693329 240.610413,206.145584 
	C240.583893,206.668243 240.557358,207.190918 240.530838,207.713577 
	C241.336609,206.967621 242.142380,206.221649 243.924240,204.572067 
	C243.924240,207.637375 244.692261,210.240662 243.719559,211.575653 
	C242.632767,213.067245 239.966553,213.408035 238.091080,214.205688 
	C237.068024,211.533508 236.375641,209.725021 235.472870,208.171555 
z"/>
</svg>